# xmcd
#
# Track frame offsets:
#	150
#	13748
#	26362
#	41631
#	51947
#	69280
#	81699
#	100215
#	109087
#	129261
#	150927
#	173224
#	186449
#	203269
#	220223
#	231004
#	241772
#	261405
#	284627
#
# Disc length: 3970 seconds
#
# Revision: 4
# Processed by: cddbd v1.5.2PL0 Copyright (c) Steve Scherf et al.
# Submitted via: EZCDAudioConverter 2.1.7.1
#
DISCID=050f8013
DTITLE=Meic Stevens - Rain In The Leaves: The EPs V1
DYEAR=2006
DGENRE=
TTITLE0=Did I Dream?
TTITLE1=I Saw A Field
TTITLE2=Yr Eryr A'r Golomen (The Eagle And The Dove)
TTITLE3=Ble Mae'r Bore? (Where's The Morning?)
TTITLE4=Ond Dof Yn Ôl (But I Shall Return)
TTITLE5=Tryweryn
TTITLE6=Cân Walter (Walter's Song)
TTITLE7=Hwiangerdd Mihangel (Michael's Lullaby)
TTITLE8=Glaw Yn Y Dail (Rain In The Leaves)
TTITLE9=Lan A Lawr (Up And Down)
TTITLE10=Mwg (Smoke)
TTITLE11=Rhedaf I'r Mynydd (I Run To The Mountain)
TTITLE12=Myfi Yw'r Dechreuad (I Am The Beginning)
TTITLE13=Tyrd I Lawr I'r Ogof (Come Down Through The Cave)
TTITLE14=Mynd I Bala Ar Y Cwch Banana (Going To Bala On The Banana Boat)
TTITLE15=Nid Y Fi Yw'r Un I Ofyn Pam (Not For Me To Ask The Reason Why)
TTITLE16=Mae Gennyf I Gariad (I've Got A Love)
TTITLE17=Dim Ond Heddiw Ddoe A Fory (Only Today, Yesterday And Tomorrow)
TTITLE18=Cân Mamgu (Grandmother's Song)
EXTD=
EXTT0=
EXTT1=
EXTT2=
EXTT3=
EXTT4=
EXTT5=
EXTT6=
EXTT7=
EXTT8=
EXTT9=
EXTT10=
EXTT11=
EXTT12=
EXTT13=
EXTT14=
EXTT15=
EXTT16=
EXTT17=
EXTT18=
PLAYORDER=
